<?xml version="1.0" encoding="UTF-8" standalone="no"?>
<svg width="16px" height="16px" viewBox="0 0 16 16" version="1.1" xmlns="http://www.w3.org/2000/svg" xmlns:xlink="http://www.w3.org/1999/xlink">
    <!-- Generator: Sketch 3.8.3 (29802) - http://www.bohemiancoding.com/sketch -->
    <title>Shape</title>
    <desc>Created with Sketch.</desc>
    <defs></defs>
    <g id="Page-1" stroke="none" stroke-width="1" fill="none" fill-rule="evenodd">
        <path d="M9.33333333,4.33333333 L9.33333333,9 C9.33333333,9.09722222 9.30208333,9.17708333 9.23958333,9.23958333 C9.17708333,9.30208333 9.09722222,9.33333333 9,9.33333333 L5.66666667,9.33333333 C5.56944445,9.33333333 5.48958333,9.30208333 5.42708333,9.23958333 C5.36458333,9.17708333 5.33333333,9.09722222 5.33333333,9 L5.33333333,8.33333333 C5.33333333,8.23611111 5.36458333,8.15625 5.42708333,8.09375 C5.48958333,8.03125 5.56944445,8 5.66666667,8 L8,8 L8,4.33333333 C8,4.23611111 8.03125,4.15625 8.09375,4.09375 C8.15625,4.03125 8.23611111,4 8.33333333,4 L9,4 C9.09722222,4 9.17708333,4.03125 9.23958333,4.09375 C9.30208333,4.15625 9.33333333,4.23611111 9.33333333,4.33333333 L9.33333333,4.33333333 Z M13.6666667,8 C13.6666667,6.97222222 13.4131944,6.02430555 12.90625,5.15625 C12.3993056,4.28819445 11.7118056,3.60069445 10.84375,3.09375 C9.97569445,2.58680555 9.02777778,2.33333333 8,2.33333333 C6.97222222,2.33333333 6.02430555,2.58680555 5.15625,3.09375 C4.28819445,3.60069445 3.60069445,4.28819445 3.09375,5.15625 C2.58680555,6.02430555 2.33333333,6.97222222 2.33333333,8 C2.33333333,9.02777778 2.58680555,9.97569445 3.09375,10.84375 C3.60069445,11.7118056 4.28819445,12.3993056 5.15625,12.90625 C6.02430555,13.4131944 6.97222222,13.6666667 8,13.6666667 C9.02777778,13.6666667 9.97569445,13.4131944 10.84375,12.90625 C11.7118056,12.3993056 12.3993056,11.7118056 12.90625,10.84375 C13.4131944,9.97569445 13.6666667,9.02777778 13.6666667,8 L13.6666667,8 Z M16,8 C16,9.45138889 15.6423611,10.7899306 14.9270833,12.015625 C14.2118056,13.2413194 13.2413194,14.2118056 12.015625,14.9270833 C10.7899306,15.6423611 9.45138889,16 8,16 C6.54861111,16 5.21006945,15.6423611 3.984375,14.9270833 C2.75868055,14.2118056 1.78819445,13.2413194 1.07291667,12.015625 C0.357638885,10.7899306 0,9.45138889 0,8 C0,6.54861111 0.357638885,5.21006945 1.07291667,3.984375 C1.78819445,2.75868055 2.75868055,1.78819445 3.984375,1.07291667 C5.21006945,0.357638885 6.54861111,0 8,0 C9.45138889,0 10.7899306,0.357638885 12.015625,1.07291667 C13.2413194,1.78819445 14.2118056,2.75868055 14.9270833,3.984375 C15.6423611,5.21006945 16,6.54861111 16,8 L16,8 Z" id="Shape" fill="#000000"></path>
    </g>
</svg>