<?xml version="1.0" encoding="UTF-8" standalone="no"?>
<svg width="18px" height="16px" viewBox="0 0 18 16" version="1.1" xmlns="http://www.w3.org/2000/svg" xmlns:xlink="http://www.w3.org/1999/xlink">
    <!-- Generator: Sketch 3.8.3 (29802) - http://www.bohemiancoding.com/sketch -->
    <title>Shape</title>
    <desc>Created with Sketch.</desc>
    <defs></defs>
    <g id="Page-1" stroke="none" stroke-width="1" fill="none" fill-rule="evenodd">
        <path d="M5.29464286,8 C4.33035714,8.0297619 3.54166667,8.41071429 2.92857143,9.14285714 L1.73214286,9.14285714 C1.24404762,9.14285714 0.83333333,9.02232143 0.5,8.78125 C0.16666667,8.54017857 0,8.1875 0,7.72321429 C0,5.62202381 0.369047616,4.57142857 1.10714286,4.57142857 C1.14285714,4.57142857 1.27232143,4.63392857 1.49553571,4.75892857 C1.71875,4.88392857 2.00892857,5.01041667 2.36607143,5.13839286 C2.72321429,5.26636904 3.07738096,5.33035714 3.42857143,5.33035714 C3.82738096,5.33035714 4.22321429,5.26190476 4.61607143,5.125 C4.58630953,5.3452381 4.57142857,5.54166667 4.57142857,5.71428571 C4.57142857,6.54166667 4.8125,7.30357143 5.29464286,8 L5.29464286,8 Z M14.8571429,13.6875 C14.8571429,14.4017857 14.639881,14.9657738 14.2053571,15.3794643 C13.7708333,15.7931548 13.1934524,16 12.4732143,16 L4.66964286,16 C3.94940476,16 3.37202381,15.7931548 2.9375,15.3794643 C2.50297619,14.9657738 2.28571429,14.4017857 2.28571429,13.6875 C2.28571429,13.3720238 2.29613096,13.0639881 2.31696429,12.7633929 C2.33779762,12.4627976 2.37946429,12.1383929 2.44196429,11.7901786 C2.50446429,11.4419643 2.58333333,11.1190476 2.67857143,10.8214286 C2.77380953,10.5238095 2.90178571,10.233631 3.0625,9.95089286 C3.22321429,9.66815476 3.4077381,9.42708333 3.61607143,9.22767857 C3.82440476,9.02827381 4.07886904,8.86904762 4.37946429,8.75 C4.68005953,8.63095238 5.01190476,8.57142857 5.375,8.57142857 C5.43452381,8.57142857 5.5625,8.63541667 5.75892857,8.76339286 C5.95535714,8.89136904 6.17261904,9.03422619 6.41071429,9.19196429 C6.64880953,9.34970238 6.9672619,9.49255953 7.36607143,9.62053571 C7.76488096,9.7485119 8.16666667,9.8125 8.57142857,9.8125 C8.97619047,9.8125 9.37797619,9.7485119 9.77678571,9.62053571 C10.1755952,9.49255953 10.4940476,9.34970238 10.7321429,9.19196429 C10.9702381,9.03422619 11.1875,8.89136904 11.3839286,8.76339286 C11.5803571,8.63541667 11.7083333,8.57142857 11.7678571,8.57142857 C12.1309524,8.57142857 12.4627976,8.63095238 12.7633929,8.75 C13.0639881,8.86904762 13.3184524,9.02827381 13.5267857,9.22767857 C13.735119,9.42708333 13.9196429,9.66815476 14.0803571,9.95089286 C14.2410714,10.233631 14.3690476,10.5238095 14.4642857,10.8214286 C14.5595238,11.1190476 14.6383929,11.4419643 14.7008929,11.7901786 C14.7633929,12.1383929 14.8050595,12.4627976 14.8258929,12.7633929 C14.8467262,13.0639881 14.8571429,13.3720238 14.8571429,13.6875 L14.8571429,13.6875 Z M5.71428571,2.28571429 C5.71428571,2.91666667 5.49107143,3.45535714 5.04464286,3.90178571 C4.59821429,4.34821429 4.05952381,4.57142857 3.42857143,4.57142857 C2.79761904,4.57142857 2.25892857,4.34821429 1.8125,3.90178571 C1.36607143,3.45535714 1.14285714,2.91666667 1.14285714,2.28571429 C1.14285714,1.6547619 1.36607143,1.11607143 1.8125,0.669642857 C2.25892857,0.223214286 2.79761904,0 3.42857143,0 C4.05952381,0 4.59821429,0.223214286 5.04464286,0.669642857 C5.49107143,1.11607143 5.71428571,1.6547619 5.71428571,2.28571429 L5.71428571,2.28571429 Z M12,5.71428571 C12,6.66071429 11.6651786,7.46875 10.9955357,8.13839286 C10.3258929,8.80803571 9.51785714,9.14285714 8.57142857,9.14285714 C7.625,9.14285714 6.81696429,8.80803571 6.14732143,8.13839286 C5.47767857,7.46875 5.14285714,6.66071429 5.14285714,5.71428571 C5.14285714,4.76785714 5.47767857,3.95982143 6.14732143,3.29017857 C6.81696429,2.62053571 7.625,2.28571429 8.57142857,2.28571429 C9.51785714,2.28571429 10.3258929,2.62053571 10.9955357,3.29017857 C11.6651786,3.95982143 12,4.76785714 12,5.71428571 L12,5.71428571 Z M17.1428571,7.72321429 C17.1428571,8.1875 16.9761905,8.54017857 16.6428571,8.78125 C16.3095238,9.02232143 15.8988095,9.14285714 15.4107143,9.14285714 L14.2142857,9.14285714 C13.6011905,8.41071429 12.8125,8.0297619 11.8482143,8 C12.3303571,7.30357143 12.5714286,6.54166667 12.5714286,5.71428571 C12.5714286,5.54166667 12.5565476,5.3452381 12.5267857,5.125 C12.9196429,5.26190476 13.3154762,5.33035714 13.7142857,5.33035714 C14.0654762,5.33035714 14.4196429,5.26636904 14.7767857,5.13839286 C15.1339286,5.01041667 15.4241071,4.88392857 15.6473214,4.75892857 C15.8705357,4.63392857 16,4.57142857 16.0357143,4.57142857 C16.7738095,4.57142857 17.1428571,5.62202381 17.1428571,7.72321429 L17.1428571,7.72321429 Z M16,2.28571429 C16,2.91666667 15.7767857,3.45535714 15.3303571,3.90178571 C14.8839286,4.34821429 14.3452381,4.57142857 13.7142857,4.57142857 C13.0833333,4.57142857 12.5446429,4.34821429 12.0982143,3.90178571 C11.6517857,3.45535714 11.4285714,2.91666667 11.4285714,2.28571429 C11.4285714,1.6547619 11.6517857,1.11607143 12.0982143,0.669642857 C12.5446429,0.223214286 13.0833333,0 13.7142857,0 C14.3452381,0 14.8839286,0.223214286 15.3303571,0.669642857 C15.7767857,1.11607143 16,1.6547619 16,2.28571429 L16,2.28571429 Z" id="Shape" fill="#000000"></path>
    </g>
</svg>